<?xml version="1.0" standalone="no"?>
<!DOCTYPE svg PUBLIC "-//W3C//DTD SVG 20010904//EN"
 "http://www.w3.org/TR/2001/REC-SVG-20010904/DTD/svg10.dtd">
<svg version="1.0" xmlns="http://www.w3.org/2000/svg"
 width="616.000000pt" height="616.000000pt" viewBox="0 0 616.000000 616.000000"
 preserveAspectRatio="xMidYMid meet">
<metadata>
Created by potrace 1.14, written by Peter Selinger 2001-2017
</metadata>
<g transform="translate(0.000000,616.000000) scale(0.100000,-0.100000)"
fill="#000000" stroke="none">
<path d="M5830 5804 c-80 -36 -158 -71 -175 -79 -244 -110 -295 -132 -295
-127 0 4 -4 2 -8 -3 -4 -6 -36 -24 -72 -39 -36 -16 -92 -41 -125 -56 -33 -15
-94 -42 -135 -60 -41 -18 -104 -46 -140 -63 -36 -16 -105 -47 -155 -69 -49
-22 -110 -50 -135 -61 -25 -11 -47 -21 -50 -22 -3 -1 -30 -13 -60 -27 -30 -14
-93 -42 -140 -63 -47 -21 -112 -50 -145 -66 -168 -77 -112 -69 -497 -68 -10 0
-83 0 -163 0 -80 0 -152 0 -160 0 -8 0 -80 0 -160 0 -80 0 -152 0 -160 0 -8 0
-80 0 -160 0 -80 0 -153 0 -162 0 -10 0 -106 0 -213 0 -107 1 -202 1 -210 0
-8 0 -27 -1 -41 -2 -28 0 -47 -19 -154 -144 -33 -38 -64 -75 -70 -81 -5 -6
-30 -35 -55 -64 -25 -29 -56 -66 -70 -81 -14 -15 -34 -38 -45 -51 -72 -85
-131 -154 -135 -158 -3 -3 -48 -54 -100 -115 -52 -60 -107 -123 -122 -139 -42
-44 -37 -53 28 -46 30 3 57 3 59 -1 3 -3 18 -4 35 0 17 3 143 4 280 1 137 -3
260 -2 272 1 13 3 32 3 43 -1 11 -3 33 -4 49 -1 16 3 104 4 197 1 93 -3 179
-2 191 1 13 3 32 3 43 -1 11 -3 33 -4 49 -1 16 3 104 4 197 1 93 -3 179 -2
191 1 13 3 34 3 48 -1 14 -4 37 -4 51 0 15 4 33 4 40 -1 11 -6 9 -13 -7 -31
-12 -13 -30 -34 -40 -47 -22 -27 -134 -161 -149 -177 -5 -6 -19 -23 -30 -38
-11 -16 -26 -35 -34 -42 -12 -13 -128 -152 -216 -259 -18 -22 -83 -101 -145
-175 -61 -74 -128 -155 -148 -179 -21 -25 -42 -49 -47 -55 -8 -9 -141 -170
-215 -260 -8 -10 -20 -23 -25 -30 -6 -6 -42 -49 -80 -96 -39 -47 -74 -90 -80
-96 -5 -6 -23 -28 -40 -49 -16 -21 -35 -43 -40 -49 -6 -6 -113 -135 -239 -286
-125 -151 -245 -295 -266 -320 -57 -68 -357 -429 -393 -474 -18 -21 -72 -86
-120 -145 -49 -58 -96 -115 -105 -126 -58 -71 -118 -142 -127 -151 -5 -7 -26
-31 -45 -55 -19 -24 -51 -62 -70 -85 -19 -23 -42 -50 -50 -60 -60 -75 -166
-200 -172 -202 -5 -2 -8 -8 -8 -14 0 -5 -8 -17 -19 -26 -21 -19 -251 -298
-251 -305 0 -2 30 11 68 29 158 76 288 137 297 140 10 2 128 58 370 175 61 29
112 53 115 54 8 2 69 30 170 78 52 25 133 63 180 85 47 22 123 58 170 80 47
22 119 56 160 75 41 19 118 55 170 80 52 24 129 60 171 80 l76 36 191 -1 c104
0 194 2 200 6 6 3 13 2 16 -3 4 -5 21 -5 43 -1 20 5 40 7 45 4 4 -3 36 -5 70
-5 35 1 72 1 83 1 11 0 64 0 117 -1 53 0 101 2 107 5 5 4 12 2 16 -4 4 -6 11
-8 16 -4 6 3 38 5 72 4 151 -4 367 -1 376 4 5 4 12 2 15 -3 4 -5 21 -5 43 -1
20 5 40 7 45 4 4 -3 36 -5 70 -5 90 1 94 1 188 1 l85 -1 45 49 c25 27 65 73
90 102 25 29 50 58 55 64 6 6 50 58 100 116 49 58 92 107 95 110 3 3 75 86
159 185 85 99 159 185 166 190 6 6 19 22 29 36 19 30 8 40 -34 29 -14 -3 -42
-3 -62 1 -22 3 -38 2 -38 -3 0 -5 -5 -6 -10 -3 -6 4 -45 6 -88 5 -42 -1 -83
-1 -89 -1 -44 3 -194 3 -238 0 -22 -1 -47 -1 -55 -1 -92 3 -221 3 -227 -1 -5
-3 -27 -2 -51 3 -23 4 -45 4 -47 0 -3 -4 -20 -4 -39 0 -19 4 -53 4 -75 0 -23
-4 -41 -4 -41 0 0 4 -18 4 -40 0 -22 -4 -58 -4 -80 0 -22 4 -43 4 -45 0 -3 -4
-20 -4 -39 0 -19 4 -53 4 -75 0 -23 -4 -41 -4 -41 0 0 4 -18 4 -40 0 -22 -4
-58 -4 -80 0 -22 4 -43 4 -45 0 -3 -4 -20 -4 -39 0 -19 4 -52 5 -73 1 -21 -4
-52 -4 -70 -1 l-32 5 27 31 c15 17 41 48 57 69 17 20 35 42 40 49 9 9 189 224
253 301 91 109 125 150 177 211 67 79 78 93 154 184 30 36 57 67 60 70 4 3 22
25 41 50 19 25 49 61 66 80 18 19 63 73 100 120 38 47 72 86 76 88 3 2 26 28
50 59 24 31 52 66 63 78 11 11 36 40 55 65 19 24 51 63 70 85 20 22 58 67 85
100 28 33 60 71 71 85 12 14 105 124 206 245 101 121 193 231 205 245 12 14
50 59 84 100 34 41 67 80 73 87 6 7 16 18 21 25 17 22 110 133 115 138 3 3 35
41 70 84 36 44 74 89 85 101 41 44 75 87 75 95 0 5 4 10 9 12 8 3 55 56 121
138 19 24 43 52 53 62 9 10 17 21 17 24 0 4 6 12 14 18 12 9 138 158 275 325
20 25 43 52 51 61 13 14 58 67 125 149 24 30 82 98 109 129 11 12 15 22 10 22
-5 0 -74 -30 -154 -66z"/>
<path d="M148 5002 l-148 -3 0 -1898 c0 -1044 2 -1900 6 -1903 3 -3 21 -2 40
2 19 5 37 4 40 -1 3 -5 10 -7 15 -3 6 3 38 5 72 5 186 -5 291 -2 310 8 12 7
31 25 42 40 11 16 45 57 77 92 31 35 86 100 123 144 37 44 75 87 84 96 9 9 32
36 51 59 19 23 42 50 51 59 8 9 71 81 139 161 69 80 137 159 152 175 15 17 28
33 28 38 0 8 -22 11 -60 7 -14 -2 -34 -3 -45 -2 -11 0 -73 1 -137 2 -65 1
-116 6 -113 10 2 4 5 43 5 86 0 133 1 188 3 214 2 14 0 40 -4 58 -4 17 -3 34
1 37 4 3 4 21 0 40 -4 19 -4 51 0 70 4 19 4 37 0 40 -4 3 -5 20 -1 37 7 33 5
92 -4 115 -2 7 0 15 4 18 5 3 5 22 1 42 -5 20 -6 41 -4 45 5 7 6 96 3 178 0 8
0 54 1 102 1 48 -1 91 -4 97 -4 5 -2 12 2 15 5 3 6 22 3 43 -4 21 -4 62 -1 91
4 29 2 55 -2 58 -5 3 -6 10 -3 15 5 8 6 72 4 184 -1 11 0 40 1 65 1 35 2 188
2 265 0 6 -1 29 -3 53 -3 50 7 64 47 63 168 -5 214 0 214 24 0 7 4 15 9 17 5
2 32 31 59 66 28 35 66 82 86 105 30 37 309 377 335 410 6 6 21 24 34 39 13
15 32 39 43 54 10 15 45 57 76 94 32 38 58 71 58 74 0 3 -11 1 -24 -4 -13 -5
-26 -7 -29 -4 -2 3 -105 4 -228 4 -123 -1 -231 -1 -239 -1 -8 0 -116 0 -240 0
-124 0 -232 0 -240 0 -8 0 -118 0 -244 1 -126 0 -230 -1 -233 -3 -2 -3 -18 -2
-36 2 -18 3 -98 5 -179 3z"/>
<path d="M5843 5002 c-117 -1 -213 -6 -213 -11 0 -5 -13 -22 -28 -39 -16 -16
-39 -44 -53 -62 -13 -17 -30 -38 -37 -46 -7 -7 -58 -69 -113 -136 -100 -123
-147 -180 -172 -208 -7 -8 -31 -37 -53 -65 -21 -27 -51 -63 -66 -80 -15 -16
-63 -75 -108 -130 -44 -55 -89 -110 -100 -121 -11 -12 -20 -23 -20 -25 0 -2
39 -2 86 1 47 3 87 3 90 1 5 -6 94 -5 100 1 5 5 56 -3 79 -13 5 -2 8 -8 6 -14
-2 -5 -3 -23 -1 -40 1 -16 2 -34 2 -40 0 -5 -1 -50 -1 -100 0 -49 0 -99 -1
-110 0 -11 0 -38 1 -60 0 -22 1 -44 1 -50 0 -5 -1 -50 -1 -100 0 -49 0 -99 -1
-110 0 -11 0 -38 1 -60 0 -22 1 -44 1 -50 0 -5 -1 -50 -1 -100 0 -49 0 -99 -1
-110 0 -11 0 -38 1 -60 0 -22 1 -44 1 -50 0 -5 -1 -50 -1 -100 0 -49 0 -99 -1
-110 0 -11 0 -38 1 -60 0 -22 1 -44 1 -50 0 -5 -1 -50 -1 -100 0 -49 0 -99 -1
-110 0 -11 0 -38 1 -60 0 -22 1 -44 1 -50 -2 -72 -1 -149 1 -188 1 -26 -1 -47
-5 -47 -3 0 -4 -13 -2 -30 5 -29 4 -30 -33 -31 -21 -1 -42 -1 -46 0 -22 4
-125 1 -146 -3 -14 -3 -29 -13 -34 -21 -4 -8 -16 -23 -26 -33 -10 -9 -74 -82
-142 -162 -149 -175 -170 -199 -189 -220 -8 -9 -37 -43 -65 -75 -27 -33 -52
-62 -56 -65 -5 -4 -174 -200 -219 -254 -8 -10 -21 -24 -28 -32 -11 -12 -8 -14
20 -15 18 -1 42 -1 53 -1 44 2 62 2 100 3 22 1 47 1 55 1 8 0 44 -1 80 -1 36
-1 74 -1 85 -1 11 0 64 0 117 -1 53 0 101 2 107 5 5 4 12 2 16 -4 4 -6 11 -8
16 -4 6 3 38 5 72 4 151 -4 367 -1 376 4 5 4 12 2 15 -3 4 -5 21 -5 43 -1 20
5 40 7 45 4 4 -3 36 -5 70 -5 35 1 72 1 83 1 11 0 64 0 117 -1 53 0 101 2 107
5 5 4 12 2 15 -3 3 -5 21 -6 40 -1 19 4 37 6 39 3 8 -7 184 -6 196 2 7 4 9 11
3 18 -5 7 -6 23 -2 37 4 14 4 36 0 50 -3 14 -5 34 -4 45 3 25 4 64 4 90 -1 34
-1 149 -1 165 1 8 1 26 0 40 0 14 -1 32 0 40 0 8 0 44 0 80 0 36 0 71 0 78 0
6 0 28 0 47 0 19 0 43 0 53 0 9 0 53 0 97 0 44 0 87 1 95 0 8 0 26 -1 40 0 14
0 32 0 40 1 8 1 26 0 40 0 14 0 32 0 40 1 8 1 26 0 40 0 14 0 32 0 40 1 8 1
26 0 40 0 14 0 32 0 40 1 8 1 26 0 40 0 14 0 32 0 40 1 8 1 26 0 40 0 14 -1
36 -1 50 0 14 1 36 1 50 1 14 1 34 1 45 -1 34 -1 149 -1 165 1 8 1 26 0 40 0
14 -1 32 0 40 0 8 0 44 0 80 0 36 0 71 0 78 0 6 0 28 0 47 0 19 0 43 0 53 0 9
0 53 0 97 0 44 0 87 1 95 0 8 0 26 -1 40 0 14 0 32 0 40 1 8 1 26 0 40 0 14 0
32 0 40 1 8 1 26 0 40 0 14 0 32 0 40 1 8 1 26 0 40 0 14 0 32 0 40 1 8 1 26
0 40 0 14 0 32 0 40 1 8 1 26 0 40 0 14 -1 36 -1 50 0 14 1 36 1 50 1 14 1 34
1 45 -1 34 -1 149 -1 165 1 8 1 26 0 40 0 14 -1 32 0 40 0 8 0 44 0 80 0 36 0
71 0 78 0 6 0 28 0 47 0 62 0 69 2 147 0 43 -2 81 -5 86 -2 4 -1 14 4 21 4 8
4 26 0 41 -4 15 -4 33 0 40 4 7 4 25 0 40 -4 15 -4 33 0 40 4 7 4 25 0 40 -4
15 -4 34 1 43 6 10 5 18 -1 22 -6 4 -8 10 -5 15 8 13 -46 15 -272 12z"/>
</g>
</svg>
