<?xml version="1.0" encoding="utf-8"?>
<svg viewBox="38.028 0 114.972 73.888" xmlns="http://www.w3.org/2000/svg">
  <g fill="#F7A41D" style="" transform="matrix(0.35117, 0, 0, 0.505352, 42.58181, 1.12306)">
    <g>
      <polygon points="46,22 28,44 19,30"/>
      <polygon points="46,22 33,33 28,44 22,44 22,95 31,95 20,100 12,117 0,117 0,22" shape-rendering="crispEdges"/>
      <polygon points="31,95 12,117 4,106"/>
    </g>
    <g>
      <polygon points="56,22 62,36 37,44"/>
      <polygon points="56,22 111,22 111,44 37,44 56,32" shape-rendering="crispEdges"/>
      <polygon points="116,95 97,117 90,104"/>
      <polygon points="116,95 100,104 97,117 42,117 42,95" shape-rendering="crispEdges"/>
      <polygon points="150,0 52,117 3,140 101,22"/>
    </g>
    <g>
      <polygon points="141,22 140,40 122,45"/>
      <polygon points="153,22 153,117 106,117 120,105 125,95 131,95 131,45 122,45 132,36 141,22" shape-rendering="crispEdges"/>
      <polygon points="125,95 130,110 106,117"/>
    </g>
  </g>
  <text style="fill: rgb(247, 164, 30); font-family: 'Bradley Hand'; font-size: 21.2px; white-space: pre;" transform="matrix(1.219474, 0, 0, 1.223365, -12.441791, -22.514816)"><tspan x="91.681" y="44.411">中文</tspan><tspan x="91.681" dy="1em">​</tspan><tspan>社区</tspan></text>
</svg>