<?xml version="1.0" encoding="UTF-8"?>
<svg xmlns="http://www.w3.org/2000/svg" viewBox="-1.407 0 204.141 205.99">
  <g fill="#f7a41d" transform="matrix(1, 0, 0, 1, 20, 30.000000000000004)">
    <g>
      <polygon points="46,22 28,44 22,44 22,95 31,95 12,117 0,117 0,22" shape-rendering="crispEdges"></polygon>
    </g>
    <g>
      <polygon points="56,22 130,22 111,44 37,44" shape-rendering="crispEdges"></polygon>
      <polygon points="116,95 97,117 23,117 42,95" shape-rendering="crispEdges"></polygon>
      <polygon transform="rotate(-20 30.095, 44.19) translate(-10 15)" points="150,0 52,117 3,140 101,22" shape-rendering="crispEdges"></polygon>
    </g>
    <g>
      <polygon points="153,22 153,117 106,117 125,95 131,95 131,45 122,45 141,22" shape-rendering="crispEdges"></polygon>
    </g>
  </g>
</svg>