<svg xmlns="http://www.w3.org/2000/svg" viewBox="0 0 600 210">
	<g fill="#F7A41D" transform="translate(20 30)">
		<g>
			<polygon points="46,22 28,44 22,44 22,95 31,95 12,117 0,117 0,22" shape-rendering="crispEdges" />
		</g>
		<g>
			<polygon points="56,22 130,22 111,44 37,44" shape-rendering="crispEdges" />
			<polygon points="116,95 97,117 23,117 42,95" shape-rendering="crispEdges" />
			<polygon transform="rotate(-20 30.095, 44.19) translate(-10 15)" points="150,0 52,117 3,140 101,22" shape-rendering="crispEdges" />
			<!-- <polygon transform="rotate(10 55.095 80.19)" points="92,-10 92,140 70,180 70,12" shape-rendering="crispEdges" /> -->
		</g>
		<g>
			<polygon points="153,22 153,117 106,117 125,95 131,95 131,45 122,45 141,22" shape-rendering="crispEdges" />
		</g>
		<g transform="translate(-10 -25) scale(1.3 1.3)">
			<path
				d="M144,39.6c11,0,22,0,33,0c-0.9-3.1-2.2-6.8-3.8-11.3l13.7-2.8c2.2,6,4,10.7,5.1,14.1h34.2v12.1H213
				c-4.5,13.6-11,25.1-19.5,34.5c9.2,6.4,20.6,11.2,34.1,14.6c-5,6-8.3,10.5-9.9,13.2c-13.7-4.6-25.3-10.6-34.9-18.1
				c-9.6,7.2-21.4,13.5-35.4,18.7c-3.2-5.2-6.2-9.6-9-13c13.4-4.2,24.7-9.4,33.8-15.5c-8.6-9.6-14.7-21-18.3-34.2
				c-6.3,0-12.6,0-18.8,0C138,47.6,141,43.6,144,39.6z M197.7,51.7h-29.9c3.1,9.8,8.1,18.3,15,25.5C189.8,70,194.7,61.5,197.7,51.7z" />
			<path d="M259,25.1c2.6,3.1,5.5,7.1,8.7,11.9l-9.2,4.9h13.6v10c-2.5,5.5-5.4,10.7-8.6,15.7v3.9l4.9-4.4
				c3.5,3.1,7.3,6.8,11.4,11.1l-8.9,7.3c-2.8-3.6-5.3-6.7-7.5-9.3v37.6h-12.2V83.1c-2.5,2.7-5.2,5.4-8.1,7.9
				c-1.3-5.8-2.5-10.6-3.6-14.6c8-6.9,14.1-14.5,18.3-22.6h-17.1V41.9H256c-2.8-4.6-5.4-8.4-7.7-11.5L259,25.1z M270.3,99.2h23.9V62.5
				h-18V50.8h18V26.4h12.9v24.3h18.5v11.7h-18.5v36.7h21.7v11.7h-58.6V99.2z" />
			<path d="M359.2,98.3c24.3,0,48.6,0,72.8,0c-3,4.1-6,8.1-9,12.2c-25.5,0-51,0-76.6,0V30.7h79.8v12.1h-67V98.3z
				M362.6,52.9l8.6-8.8l19.9,17.3c5.1-5.7,9.9-11.8,14.3-18.1l11.1,7.4c-5,6.8-10.3,13.2-15.9,19.3l20.2,18.6L410.3,98
				c-6.1-6.3-12.4-12.5-18.7-18.6c-6.8,6.6-13.9,12.8-21.4,18.5c-1.5-1.9-4.5-5.1-9-9.6c7.5-5.4,14.5-11.3,21-17.7
				C375.8,64.6,369.2,58.7,362.6,52.9z" />
		</g>
	</g>
</svg>